<?xml version="1.0" encoding="UTF-8"?> <svg xmlns="http://www.w3.org/2000/svg" width="119" height="16" viewBox="0 0 119 16" fill="none"><path d="M74.3465 3.14999H79.1723V15.6682H82.3265V3.14999H87.1899V0.331833H74.3465V3.14999ZM106.443 2.97386C105.161 2.9487 103.929 3.46451 103.062 4.4081C101.24 6.45883 101.24 9.55377 103.062 11.6045C103.49 12.07 104.017 12.4474 104.595 12.6991C105.173 12.9507 105.802 13.0639 106.443 13.0513H111.029C112.312 13.0765 113.531 12.5606 114.41 11.6171C116.232 9.56637 116.232 6.4714 114.41 4.42068C113.983 3.95518 113.455 3.57775 112.877 3.32613C112.299 3.0745 111.67 2.96128 111.043 2.97386H106.443ZM111.029 0.00472522C112.086 -0.033018 113.141 0.155698 114.121 0.558293C115.101 0.960887 115.981 1.56478 116.71 2.31964C119.763 5.4775 119.763 10.4847 116.71 13.6426C115.239 15.1901 113.166 16.0331 111.029 15.9701H106.443C104.306 16.0331 102.245 15.1901 100.762 13.6426C97.7086 10.4847 97.7086 5.4775 100.762 2.31964C101.491 1.5522 102.383 0.960887 103.352 0.558293C104.331 0.16828 105.387 -0.0204369 106.443 0.00472522H111.029ZM54.1639 2.97386C54.7921 2.96128 55.4206 3.08708 55.9986 3.32613C56.5766 3.57775 57.1046 3.95518 57.5318 4.42068C59.354 6.4714 59.354 9.56637 57.5318 11.6171C56.6646 12.5606 55.433 13.0765 54.1513 13.0513H34.3583C33.0764 13.0891 31.8448 12.5606 30.9778 11.6171C29.1555 9.56637 29.1555 6.4714 30.9778 4.42068C31.8448 3.48969 33.0764 2.96128 34.3583 2.98643L54.1639 2.97386ZM54.1639 15.9953C55.2195 16.0331 56.2751 15.8443 57.2553 15.4417C58.2356 15.0391 59.1152 14.4353 59.8442 13.6678C62.8854 10.5099 62.8854 5.50266 59.8442 2.34482C58.3613 0.809915 56.3003 -0.0455991 54.1639 0.00472522H34.3583C33.3027 -0.033018 32.2469 0.155698 31.2667 0.558293C30.2866 0.960887 29.4068 1.56478 28.6779 2.31964C25.6368 5.4775 25.6368 10.4847 28.6779 13.6426C30.1609 15.1901 32.2219 16.0331 34.3583 15.9701L54.1639 15.9953ZM7.69102 15.6682C9.08591 15.7436 10.4683 15.3159 11.5742 14.4604C12.0392 14.0829 12.4163 13.6049 12.6675 13.0513C12.9189 12.5103 13.032 11.919 13.0194 11.3151C13.0571 10.3212 12.7304 9.35246 12.102 8.57243C11.5491 7.88048 10.77 7.4024 9.91539 7.21369C10.506 6.94948 10.9962 6.52172 11.3229 5.96815C11.6622 5.42718 11.8382 4.79811 11.8256 4.15648C11.8256 1.70317 9.99073 0.319251 7.17577 0.319251H0V15.6555H7.69102V15.6682ZM3.11661 8.92473H7.10036C8.65867 8.92473 9.60116 9.64187 9.60116 10.9377C9.60116 12.2335 8.67125 12.9507 7.11293 12.9507H3.11661V8.92473ZM3.11661 2.92354H6.67308C7.98005 2.92354 8.77177 3.56517 8.77177 4.63455C8.77177 5.70395 7.98005 6.28269 6.67308 6.28269H3.11661V2.92354Z" fill="white"></path></svg> 